<svg width="292" height="320" viewBox="0 0 292 320" fill="none" xmlns="http://www.w3.org/2000/svg">
<circle r="6" transform="matrix(1 0 0 -1 6 6)" fill="#111F4D"/>
<circle r="6" transform="matrix(1 0 0 -1 26 6)" fill="#111F4D"/>
<circle r="6" transform="matrix(1 0 0 -1 46 6)" fill="#111F4D"/>
<circle r="6" transform="matrix(1 0 0 -1 66 6)" fill="#111F4D"/>
<circle r="6" transform="matrix(1 0 0 -1 86 6)" fill="#111F4D"/>
<circle r="6" transform="matrix(1 0 0 -1 106 6)" fill="#111F4D"/>
<circle r="6" transform="matrix(1 0 0 -1 126 6)" fill="#111F4D"/>
<circle r="6" transform="matrix(1 0 0 -1 146 6)" fill="#111F4D"/>
<circle r="6" transform="matrix(1 0 0 -1 166 6)" fill="#111F4D"/>
<circle r="6" transform="matrix(1 0 0 -1 186 6)" fill="#111F4D"/>
<circle r="6" transform="matrix(1 0 0 -1 206 6)" fill="#111F4D"/>
<circle r="6" transform="matrix(1 0 0 -1 226 6)" fill="#111F4D"/>
<circle r="6" transform="matrix(1 0 0 -1 246 6)" fill="#111F4D"/>
<circle r="6" transform="matrix(1 0 0 -1 266 6)" fill="#111F4D"/>
<circle r="6" transform="matrix(1 0 0 -1 286 6)" fill="#111F4D"/>
<circle r="6" transform="matrix(1 0 0 -1 6 28)" fill="#111F4D"/>
<circle r="6" transform="matrix(1 0 0 -1 26 28)" fill="#111F4D"/>
<circle r="6" transform="matrix(1 0 0 -1 46 28)" fill="#111F4D"/>
<circle r="6" transform="matrix(1 0 0 -1 66 28)" fill="#111F4D"/>
<circle r="6" transform="matrix(1 0 0 -1 86 28)" fill="#111F4D"/>
<circle r="6" transform="matrix(1 0 0 -1 106 28)" fill="#111F4D"/>
<circle r="6" transform="matrix(1 0 0 -1 126 28)" fill="#111F4D"/>
<circle r="6" transform="matrix(1 0 0 -1 146 28)" fill="#111F4D"/>
<circle r="6" transform="matrix(1 0 0 -1 166 28)" fill="#111F4D"/>
<circle r="6" transform="matrix(1 0 0 -1 186 28)" fill="#111F4D"/>
<circle r="6" transform="matrix(1 0 0 -1 206 28)" fill="#111F4D"/>
<circle r="6" transform="matrix(1 0 0 -1 226 28)" fill="#111F4D"/>
<circle r="6" transform="matrix(1 0 0 -1 246 28)" fill="#111F4D"/>
<circle r="6" transform="matrix(1 0 0 -1 266 28)" fill="#111F4D"/>
<circle r="6" transform="matrix(1 0 0 -1 286 28)" fill="#111F4D"/>
<circle r="6" transform="matrix(1 0 0 -1 6 50)" fill="#111F4D"/>
<circle r="6" transform="matrix(1 0 0 -1 26 50)" fill="#111F4D"/>
<circle r="6" transform="matrix(1 0 0 -1 46 50)" fill="#111F4D"/>
<circle r="6" transform="matrix(1 0 0 -1 66 50)" fill="#111F4D"/>
<circle r="6" transform="matrix(1 0 0 -1 86 50)" fill="#111F4D"/>
<circle r="6" transform="matrix(1 0 0 -1 106 50)" fill="#111F4D"/>
<circle r="6" transform="matrix(1 0 0 -1 126 50)" fill="#111F4D"/>
<circle r="6" transform="matrix(1 0 0 -1 146 50)" fill="#111F4D"/>
<circle r="6" transform="matrix(1 0 0 -1 166 50)" fill="#111F4D"/>
<circle r="6" transform="matrix(1 0 0 -1 186 50)" fill="#111F4D"/>
<circle r="6" transform="matrix(1 0 0 -1 206 50)" fill="#111F4D"/>
<circle r="6" transform="matrix(1 0 0 -1 226 50)" fill="#111F4D"/>
<circle r="6" transform="matrix(1 0 0 -1 246 50)" fill="#111F4D"/>
<circle r="6" transform="matrix(1 0 0 -1 266 50)" fill="#111F4D"/>
<circle r="6" transform="matrix(1 0 0 -1 286 50)" fill="#111F4D"/>
<circle r="6" transform="matrix(1 0 0 -1 6 72)" fill="#111F4D"/>
<circle r="6" transform="matrix(1 0 0 -1 26 72)" fill="#111F4D"/>
<circle r="6" transform="matrix(1 0 0 -1 46 72)" fill="#111F4D"/>
<circle r="6" transform="matrix(1 0 0 -1 66 72)" fill="#111F4D"/>
<circle r="6" transform="matrix(1 0 0 -1 86 72)" fill="#111F4D"/>
<circle r="6" transform="matrix(1 0 0 -1 106 72)" fill="#111F4D"/>
<circle r="6" transform="matrix(1 0 0 -1 126 72)" fill="#111F4D"/>
<circle r="6" transform="matrix(1 0 0 -1 146 72)" fill="#111F4D"/>
<circle r="6" transform="matrix(1 0 0 -1 166 72)" fill="#111F4D"/>
<circle r="6" transform="matrix(1 0 0 -1 186 72)" fill="#111F4D"/>
<circle r="6" transform="matrix(1 0 0 -1 206 72)" fill="#111F4D"/>
<circle r="6" transform="matrix(1 0 0 -1 226 72)" fill="#111F4D"/>
<circle r="6" transform="matrix(1 0 0 -1 246 72)" fill="#111F4D"/>
<circle r="6" transform="matrix(1 0 0 -1 266 72)" fill="#111F4D"/>
<circle r="6" transform="matrix(1 0 0 -1 286 72)" fill="#111F4D"/>
<circle r="6" transform="matrix(1 0 0 -1 6 94)" fill="#111F4D"/>
<circle r="6" transform="matrix(1 0 0 -1 26 94)" fill="#111F4D"/>
<circle r="6" transform="matrix(1 0 0 -1 46 94)" fill="#111F4D"/>
<circle r="6" transform="matrix(1 0 0 -1 66 94)" fill="#111F4D"/>
<circle r="6" transform="matrix(1 0 0 -1 86 94)" fill="#111F4D"/>
<circle r="6" transform="matrix(1 0 0 -1 106 94)" fill="#111F4D"/>
<circle r="6" transform="matrix(1 0 0 -1 126 94)" fill="#111F4D"/>
<circle r="6" transform="matrix(1 0 0 -1 146 94)" fill="#111F4D"/>
<circle r="6" transform="matrix(1 0 0 -1 166 94)" fill="#111F4D"/>
<circle r="6" transform="matrix(1 0 0 -1 186 94)" fill="#111F4D"/>
<circle r="6" transform="matrix(1 0 0 -1 206 94)" fill="#111F4D"/>
<circle r="6" transform="matrix(1 0 0 -1 226 94)" fill="#111F4D"/>
<circle r="6" transform="matrix(1 0 0 -1 246 94)" fill="#111F4D"/>
<circle r="6" transform="matrix(1 0 0 -1 266 94)" fill="#111F4D"/>
<circle r="6" transform="matrix(1 0 0 -1 286 94)" fill="#111F4D"/>
<circle r="6" transform="matrix(1 0 0 -1 6 116)" fill="#111F4D"/>
<circle r="6" transform="matrix(1 0 0 -1 26 116)" fill="#111F4D"/>
<circle r="6" transform="matrix(1 0 0 -1 46 116)" fill="#111F4D"/>
<circle r="6" transform="matrix(1 0 0 -1 66 116)" fill="#111F4D"/>
<circle r="6" transform="matrix(1 0 0 -1 86 116)" fill="#111F4D"/>
<circle r="6" transform="matrix(1 0 0 -1 106 116)" fill="#111F4D"/>
<circle r="6" transform="matrix(1 0 0 -1 126 116)" fill="#111F4D"/>
<circle r="6" transform="matrix(1 0 0 -1 146 116)" fill="#111F4D"/>
<circle r="6" transform="matrix(1 0 0 -1 166 116)" fill="#111F4D"/>
<circle r="6" transform="matrix(1 0 0 -1 186 116)" fill="#111F4D"/>
<circle r="6" transform="matrix(1 0 0 -1 206 116)" fill="#111F4D"/>
<circle r="6" transform="matrix(1 0 0 -1 226 116)" fill="#111F4D"/>
<circle r="6" transform="matrix(1 0 0 -1 246 116)" fill="#111F4D"/>
<circle r="6" transform="matrix(1 0 0 -1 266 116)" fill="#111F4D"/>
<circle r="6" transform="matrix(1 0 0 -1 286 116)" fill="#111F4D"/>
<circle r="6" transform="matrix(1 0 0 -1 6 138)" fill="#111F4D"/>
<circle r="6" transform="matrix(1 0 0 -1 26 138)" fill="#111F4D"/>
<circle r="6" transform="matrix(1 0 0 -1 46 138)" fill="#111F4D"/>
<circle r="6" transform="matrix(1 0 0 -1 66 138)" fill="#111F4D"/>
<circle r="6" transform="matrix(1 0 0 -1 86 138)" fill="#111F4D"/>
<circle r="6" transform="matrix(1 0 0 -1 106 138)" fill="#111F4D"/>
<circle r="6" transform="matrix(1 0 0 -1 126 138)" fill="#111F4D"/>
<circle r="6" transform="matrix(1 0 0 -1 146 138)" fill="#111F4D"/>
<circle r="6" transform="matrix(1 0 0 -1 166 138)" fill="#111F4D"/>
<circle r="6" transform="matrix(1 0 0 -1 186 138)" fill="#111F4D"/>
<circle r="6" transform="matrix(1 0 0 -1 206 138)" fill="#111F4D"/>
<circle r="6" transform="matrix(1 0 0 -1 226 138)" fill="#111F4D"/>
<circle r="6" transform="matrix(1 0 0 -1 246 138)" fill="#111F4D"/>
<circle r="6" transform="matrix(1 0 0 -1 266 138)" fill="#111F4D"/>
<circle r="6" transform="matrix(1 0 0 -1 286 138)" fill="#111F4D"/>
<circle r="6" transform="matrix(1 0 0 -1 6 160)" fill="#111F4D"/>
<circle r="6" transform="matrix(1 0 0 -1 26 160)" fill="#111F4D"/>
<circle r="6" transform="matrix(1 0 0 -1 46 160)" fill="#111F4D"/>
<circle r="6" transform="matrix(1 0 0 -1 66 160)" fill="#111F4D"/>
<circle r="6" transform="matrix(1 0 0 -1 86 160)" fill="#111F4D"/>
<circle r="6" transform="matrix(1 0 0 -1 106 160)" fill="#111F4D"/>
<circle r="6" transform="matrix(1 0 0 -1 126 160)" fill="#111F4D"/>
<circle r="6" transform="matrix(1 0 0 -1 146 160)" fill="#111F4D"/>
<circle r="6" transform="matrix(1 0 0 -1 166 160)" fill="#111F4D"/>
<circle r="6" transform="matrix(1 0 0 -1 186 160)" fill="#111F4D"/>
<circle r="6" transform="matrix(1 0 0 -1 206 160)" fill="#111F4D"/>
<circle r="6" transform="matrix(1 0 0 -1 226 160)" fill="#111F4D"/>
<circle r="6" transform="matrix(1 0 0 -1 246 160)" fill="#111F4D"/>
<circle r="6" transform="matrix(1 0 0 -1 266 160)" fill="#111F4D"/>
<circle r="6" transform="matrix(1 0 0 -1 286 160)" fill="#111F4D"/>
<circle r="6" transform="matrix(1 0 0 -1 6 182)" fill="#111F4D"/>
<circle r="6" transform="matrix(1 0 0 -1 26 182)" fill="#111F4D"/>
<circle r="6" transform="matrix(1 0 0 -1 46 182)" fill="#111F4D"/>
<circle r="6" transform="matrix(1 0 0 -1 66 182)" fill="#111F4D"/>
<circle r="6" transform="matrix(1 0 0 -1 86 182)" fill="#111F4D"/>
<circle r="6" transform="matrix(1 0 0 -1 106 182)" fill="#111F4D"/>
<circle r="6" transform="matrix(1 0 0 -1 126 182)" fill="#111F4D"/>
<circle r="6" transform="matrix(1 0 0 -1 146 182)" fill="#111F4D"/>
<circle r="6" transform="matrix(1 0 0 -1 166 182)" fill="#111F4D"/>
<circle r="6" transform="matrix(1 0 0 -1 186 182)" fill="#111F4D"/>
<circle r="6" transform="matrix(1 0 0 -1 206 182)" fill="#111F4D"/>
<circle r="6" transform="matrix(1 0 0 -1 226 182)" fill="#111F4D"/>
<circle r="6" transform="matrix(1 0 0 -1 246 182)" fill="#111F4D"/>
<circle r="6" transform="matrix(1 0 0 -1 266 182)" fill="#111F4D"/>
<circle r="6" transform="matrix(1 0 0 -1 286 182)" fill="#111F4D"/>
<circle r="6" transform="matrix(1 0 0 -1 6 204)" fill="#111F4D"/>
<circle r="6" transform="matrix(1 0 0 -1 26 204)" fill="#111F4D"/>
<circle r="6" transform="matrix(1 0 0 -1 46 204)" fill="#111F4D"/>
<circle r="6" transform="matrix(1 0 0 -1 66 204)" fill="#111F4D"/>
<circle r="6" transform="matrix(1 0 0 -1 86 204)" fill="#111F4D"/>
<circle r="6" transform="matrix(1 0 0 -1 106 204)" fill="#111F4D"/>
<circle r="6" transform="matrix(1 0 0 -1 126 204)" fill="#111F4D"/>
<circle r="6" transform="matrix(1 0 0 -1 146 204)" fill="#111F4D"/>
<circle r="6" transform="matrix(1 0 0 -1 166 204)" fill="#111F4D"/>
<circle r="6" transform="matrix(1 0 0 -1 186 204)" fill="#111F4D"/>
<circle r="6" transform="matrix(1 0 0 -1 206 204)" fill="#111F4D"/>
<circle r="6" transform="matrix(1 0 0 -1 226 204)" fill="#111F4D"/>
<circle r="6" transform="matrix(1 0 0 -1 246 204)" fill="#111F4D"/>
<circle r="6" transform="matrix(1 0 0 -1 266 204)" fill="#111F4D"/>
<circle r="6" transform="matrix(1 0 0 -1 286 204)" fill="#111F4D"/>
<circle r="6" transform="matrix(1 0 0 -1 6 226)" fill="#111F4D"/>
<circle r="6" transform="matrix(1 0 0 -1 26 226)" fill="#111F4D"/>
<circle r="6" transform="matrix(1 0 0 -1 46 226)" fill="#111F4D"/>
<circle r="6" transform="matrix(1 0 0 -1 66 226)" fill="#111F4D"/>
<circle r="6" transform="matrix(1 0 0 -1 86 226)" fill="#111F4D"/>
<circle r="6" transform="matrix(1 0 0 -1 106 226)" fill="#111F4D"/>
<circle r="6" transform="matrix(1 0 0 -1 126 226)" fill="#111F4D"/>
<circle r="6" transform="matrix(1 0 0 -1 146 226)" fill="#111F4D"/>
<circle r="6" transform="matrix(1 0 0 -1 166 226)" fill="#111F4D"/>
<circle r="6" transform="matrix(1 0 0 -1 186 226)" fill="#111F4D"/>
<circle r="6" transform="matrix(1 0 0 -1 206 226)" fill="#111F4D"/>
<circle r="6" transform="matrix(1 0 0 -1 226 226)" fill="#111F4D"/>
<circle r="6" transform="matrix(1 0 0 -1 246 226)" fill="#111F4D"/>
<circle r="6" transform="matrix(1 0 0 -1 266 226)" fill="#111F4D"/>
<circle r="6" transform="matrix(1 0 0 -1 286 226)" fill="#111F4D"/>
<circle r="6" transform="matrix(1 0 0 -1 6 248)" fill="#111F4D"/>
<circle r="6" transform="matrix(1 0 0 -1 26 248)" fill="#111F4D"/>
<circle r="6" transform="matrix(1 0 0 -1 46 248)" fill="#111F4D"/>
<circle r="6" transform="matrix(1 0 0 -1 66 248)" fill="#111F4D"/>
<circle r="6" transform="matrix(1 0 0 -1 86 248)" fill="#111F4D"/>
<circle r="6" transform="matrix(1 0 0 -1 106 248)" fill="#111F4D"/>
<circle r="6" transform="matrix(1 0 0 -1 126 248)" fill="#111F4D"/>
<circle r="6" transform="matrix(1 0 0 -1 146 248)" fill="#111F4D"/>
<circle r="6" transform="matrix(1 0 0 -1 166 248)" fill="#111F4D"/>
<circle r="6" transform="matrix(1 0 0 -1 186 248)" fill="#111F4D"/>
<circle r="6" transform="matrix(1 0 0 -1 206 248)" fill="#111F4D"/>
<circle r="6" transform="matrix(1 0 0 -1 226 248)" fill="#111F4D"/>
<circle r="6" transform="matrix(1 0 0 -1 246 248)" fill="#111F4D"/>
<circle r="6" transform="matrix(1 0 0 -1 266 248)" fill="#111F4D"/>
<circle r="6" transform="matrix(1 0 0 -1 286 248)" fill="#111F4D"/>
<circle r="6" transform="matrix(1 0 0 -1 6 270)" fill="#111F4D"/>
<circle r="6" transform="matrix(1 0 0 -1 26 270)" fill="#111F4D"/>
<circle r="6" transform="matrix(1 0 0 -1 46 270)" fill="#111F4D"/>
<circle r="6" transform="matrix(1 0 0 -1 66 270)" fill="#111F4D"/>
<circle r="6" transform="matrix(1 0 0 -1 86 270)" fill="#111F4D"/>
<circle r="6" transform="matrix(1 0 0 -1 106 270)" fill="#111F4D"/>
<circle r="6" transform="matrix(1 0 0 -1 126 270)" fill="#111F4D"/>
<circle r="6" transform="matrix(1 0 0 -1 146 270)" fill="#111F4D"/>
<circle r="6" transform="matrix(1 0 0 -1 166 270)" fill="#111F4D"/>
<circle r="6" transform="matrix(1 0 0 -1 186 270)" fill="#111F4D"/>
<circle r="6" transform="matrix(1 0 0 -1 206 270)" fill="#111F4D"/>
<circle r="6" transform="matrix(1 0 0 -1 226 270)" fill="#111F4D"/>
<circle r="6" transform="matrix(1 0 0 -1 246 270)" fill="#111F4D"/>
<circle r="6" transform="matrix(1 0 0 -1 266 270)" fill="#111F4D"/>
<circle r="6" transform="matrix(1 0 0 -1 286 270)" fill="#111F4D"/>
<circle r="6" transform="matrix(1 0 0 -1 6 292)" fill="#111F4D"/>
<circle r="6" transform="matrix(1 0 0 -1 26 292)" fill="#111F4D"/>
<circle r="6" transform="matrix(1 0 0 -1 46 292)" fill="#111F4D"/>
<circle r="6" transform="matrix(1 0 0 -1 66 292)" fill="#111F4D"/>
<circle r="6" transform="matrix(1 0 0 -1 86 292)" fill="#111F4D"/>
<circle r="6" transform="matrix(1 0 0 -1 106 292)" fill="#111F4D"/>
<circle r="6" transform="matrix(1 0 0 -1 126 292)" fill="#111F4D"/>
<circle r="6" transform="matrix(1 0 0 -1 146 292)" fill="#111F4D"/>
<circle r="6" transform="matrix(1 0 0 -1 166 292)" fill="#111F4D"/>
<circle r="6" transform="matrix(1 0 0 -1 186 292)" fill="#111F4D"/>
<circle r="6" transform="matrix(1 0 0 -1 206 292)" fill="#111F4D"/>
<circle r="6" transform="matrix(1 0 0 -1 226 292)" fill="#111F4D"/>
<circle r="6" transform="matrix(1 0 0 -1 246 292)" fill="#111F4D"/>
<circle r="6" transform="matrix(1 0 0 -1 266 292)" fill="#111F4D"/>
<circle r="6" transform="matrix(1 0 0 -1 286 292)" fill="#111F4D"/>
<circle r="6" transform="matrix(1 0 0 -1 6 314)" fill="#111F4D"/>
<circle r="6" transform="matrix(1 0 0 -1 26 314)" fill="#111F4D"/>
<circle r="6" transform="matrix(1 0 0 -1 46 314)" fill="#111F4D"/>
<circle r="6" transform="matrix(1 0 0 -1 66 314)" fill="#111F4D"/>
<circle r="6" transform="matrix(1 0 0 -1 86 314)" fill="#111F4D"/>
<circle r="6" transform="matrix(1 0 0 -1 106 314)" fill="#111F4D"/>
<circle r="6" transform="matrix(1 0 0 -1 126 314)" fill="#111F4D"/>
<circle r="6" transform="matrix(1 0 0 -1 146 314)" fill="#111F4D"/>
<circle r="6" transform="matrix(1 0 0 -1 166 314)" fill="#111F4D"/>
<circle r="6" transform="matrix(1 0 0 -1 186 314)" fill="#111F4D"/>
<circle r="6" transform="matrix(1 0 0 -1 206 314)" fill="#111F4D"/>
<circle r="6" transform="matrix(1 0 0 -1 226 314)" fill="#111F4D"/>
<circle r="6" transform="matrix(1 0 0 -1 246 314)" fill="#111F4D"/>
<circle r="6" transform="matrix(1 0 0 -1 266 314)" fill="#111F4D"/>
<circle r="6" transform="matrix(1 0 0 -1 286 314)" fill="#111F4D"/>
</svg>
